<mxfile host="app.diagrams.net" modified="2022-09-22T09:04:51.078Z" agent="5.0 (Windows NT 10.0; Win64; x64) AppleWebKit/537.36 (KHTML, like Gecko) Chrome/105.0.0.0 Safari/537.36" etag="Bg3gZZ8XtAfj-RsRWBLn" version="20.3.3" type="github">
  <diagram name="Page-1" id="e7e014a7-5840-1c2e-5031-d8a46d1fe8dd">
    <mxGraphModel dx="1662" dy="762" grid="1" gridSize="10" guides="1" tooltips="1" connect="1" arrows="1" fold="1" page="1" pageScale="1" pageWidth="1169" pageHeight="826" background="none" math="0" shadow="0">
      <root>
        <mxCell id="0" />
        <mxCell id="1" parent="0" />
        <mxCell id="2" value="会员" style="swimlane;whiteSpace=wrap" parent="1" vertex="1">
          <mxGeometry x="640" y="129" width="460" height="568" as="geometry" />
        </mxCell>
        <mxCell id="12" value="" style="edgeStyle=elbowEdgeStyle;elbow=horizontal;strokeColor=#FF0000;endArrow=open;endFill=1;rounded=0" parent="2" source="10" edge="1">
          <mxGeometry width="100" height="100" relative="1" as="geometry">
            <mxPoint x="160" y="290" as="sourcePoint" />
            <mxPoint x="60" y="135" as="targetPoint" />
            <Array as="points">
              <mxPoint x="30" y="250" />
            </Array>
          </mxGeometry>
        </mxCell>
        <mxCell id="GEBA51vf_ek_FZlfBsd9-47" value="查询会员信息epr/plugin/fans/member/queryMemberPager" style="rounded=0;whiteSpace=wrap;html=1;" vertex="1" parent="2">
          <mxGeometry x="70" y="45" width="290" height="58" as="geometry" />
        </mxCell>
        <mxCell id="GEBA51vf_ek_FZlfBsd9-54" value="查询付费会员权益epr/plugin/fans/member/queryMemberPager" style="rounded=0;whiteSpace=wrap;html=1;" vertex="1" parent="2">
          <mxGeometry x="70" y="190" width="290" height="60" as="geometry" />
        </mxCell>
        <mxCell id="GEBA51vf_ek_FZlfBsd9-62" value="查询付费会员套餐类型/epr/plugin/fans/plus/queryPlusTypeList" style="rounded=0;whiteSpace=wrap;html=1;" vertex="1" parent="2">
          <mxGeometry x="65" y="361" width="290" height="59" as="geometry" />
        </mxCell>
        <mxCell id="GEBA51vf_ek_FZlfBsd9-68" value="支付购买/epr/plugin/fans/plus/otherPayPlusMember" style="rounded=0;whiteSpace=wrap;html=1;" vertex="1" parent="2">
          <mxGeometry x="65" y="471" width="295" height="59" as="geometry" />
        </mxCell>
        <mxCell id="3" value="CPOS" style="swimlane;whiteSpace=wrap" parent="1" vertex="1">
          <mxGeometry x="250" y="128" width="390" height="570" as="geometry" />
        </mxCell>
        <mxCell id="GEBA51vf_ek_FZlfBsd9-53" style="edgeStyle=orthogonalEdgeStyle;rounded=0;orthogonalLoop=1;jettySize=auto;html=1;exitX=0.5;exitY=1;exitDx=0;exitDy=0;" edge="1" parent="3" source="GEBA51vf_ek_FZlfBsd9-46" target="GEBA51vf_ek_FZlfBsd9-52">
          <mxGeometry relative="1" as="geometry" />
        </mxCell>
        <mxCell id="GEBA51vf_ek_FZlfBsd9-46" value="用户中心" style="rounded=0;whiteSpace=wrap;html=1;" vertex="1" parent="3">
          <mxGeometry x="70" y="52" width="80" height="52" as="geometry" />
        </mxCell>
        <mxCell id="GEBA51vf_ek_FZlfBsd9-74" style="edgeStyle=orthogonalEdgeStyle;rounded=0;orthogonalLoop=1;jettySize=auto;html=1;exitX=1;exitY=0.5;exitDx=0;exitDy=0;entryX=0.5;entryY=0;entryDx=0;entryDy=0;" edge="1" parent="3" source="GEBA51vf_ek_FZlfBsd9-52" target="GEBA51vf_ek_FZlfBsd9-71">
          <mxGeometry relative="1" as="geometry" />
        </mxCell>
        <mxCell id="GEBA51vf_ek_FZlfBsd9-52" value="是否是付费会员" style="rhombus;whiteSpace=wrap;html=1;" vertex="1" parent="3">
          <mxGeometry x="55" y="182" width="110" height="78" as="geometry" />
        </mxCell>
        <mxCell id="GEBA51vf_ek_FZlfBsd9-59" value="付费会员购买" style="rounded=0;whiteSpace=wrap;html=1;" vertex="1" parent="3">
          <mxGeometry x="50" y="362" width="120" height="60" as="geometry" />
        </mxCell>
        <mxCell id="GEBA51vf_ek_FZlfBsd9-66" value="选择付费会员套餐并进行支付购买" style="rounded=0;whiteSpace=wrap;html=1;" vertex="1" parent="3">
          <mxGeometry x="50" y="472" width="120" height="60" as="geometry" />
        </mxCell>
        <mxCell id="GEBA51vf_ek_FZlfBsd9-57" style="edgeStyle=orthogonalEdgeStyle;rounded=0;orthogonalLoop=1;jettySize=auto;html=1;exitX=0.5;exitY=1;exitDx=0;exitDy=0;entryX=0.5;entryY=0;entryDx=0;entryDy=0;" edge="1" parent="3" source="GEBA51vf_ek_FZlfBsd9-52" target="GEBA51vf_ek_FZlfBsd9-59">
          <mxGeometry relative="1" as="geometry">
            <mxPoint x="110" y="312" as="targetPoint" />
          </mxGeometry>
        </mxCell>
        <mxCell id="GEBA51vf_ek_FZlfBsd9-65" style="edgeStyle=orthogonalEdgeStyle;rounded=0;orthogonalLoop=1;jettySize=auto;html=1;exitX=0.5;exitY=1;exitDx=0;exitDy=0;" edge="1" parent="3" source="GEBA51vf_ek_FZlfBsd9-59" target="GEBA51vf_ek_FZlfBsd9-66">
          <mxGeometry relative="1" as="geometry">
            <mxPoint x="160" y="472" as="targetPoint" />
          </mxGeometry>
        </mxCell>
        <mxCell id="GEBA51vf_ek_FZlfBsd9-71" value="续费" style="rounded=0;whiteSpace=wrap;html=1;" vertex="1" parent="3">
          <mxGeometry x="200" y="272" width="120" height="60" as="geometry" />
        </mxCell>
        <mxCell id="GEBA51vf_ek_FZlfBsd9-42" value="Actor" style="shape=umlActor;verticalLabelPosition=bottom;verticalAlign=top;html=1;" vertex="1" parent="1">
          <mxGeometry x="200" y="170" width="30" height="60" as="geometry" />
        </mxCell>
        <mxCell id="GEBA51vf_ek_FZlfBsd9-45" value="登录" style="html=1;verticalAlign=bottom;endArrow=block;rounded=0;entryX=0;entryY=0.5;entryDx=0;entryDy=0;" edge="1" parent="1" target="GEBA51vf_ek_FZlfBsd9-46">
          <mxGeometry width="80" relative="1" as="geometry">
            <mxPoint x="240" y="206" as="sourcePoint" />
            <mxPoint x="390" y="210" as="targetPoint" />
          </mxGeometry>
        </mxCell>
        <mxCell id="GEBA51vf_ek_FZlfBsd9-48" value="查询" style="html=1;verticalAlign=bottom;endArrow=block;rounded=0;entryX=1;entryY=0.5;entryDx=0;entryDy=0;" edge="1" parent="1" source="GEBA51vf_ek_FZlfBsd9-47" target="GEBA51vf_ek_FZlfBsd9-46">
          <mxGeometry width="80" relative="1" as="geometry">
            <mxPoint x="610" y="211" as="sourcePoint" />
            <mxPoint x="530" y="211" as="targetPoint" />
          </mxGeometry>
        </mxCell>
        <mxCell id="GEBA51vf_ek_FZlfBsd9-55" style="edgeStyle=orthogonalEdgeStyle;rounded=0;orthogonalLoop=1;jettySize=auto;html=1;exitX=1;exitY=0.5;exitDx=0;exitDy=0;entryX=0;entryY=0.5;entryDx=0;entryDy=0;" edge="1" parent="1" source="GEBA51vf_ek_FZlfBsd9-52" target="GEBA51vf_ek_FZlfBsd9-54">
          <mxGeometry relative="1" as="geometry" />
        </mxCell>
        <mxCell id="GEBA51vf_ek_FZlfBsd9-56" value="是" style="edgeLabel;html=1;align=center;verticalAlign=middle;resizable=0;points=[];" vertex="1" connectable="0" parent="GEBA51vf_ek_FZlfBsd9-55">
          <mxGeometry x="-0.1564" y="3" relative="1" as="geometry">
            <mxPoint as="offset" />
          </mxGeometry>
        </mxCell>
        <mxCell id="GEBA51vf_ek_FZlfBsd9-64" style="edgeStyle=orthogonalEdgeStyle;rounded=0;orthogonalLoop=1;jettySize=auto;html=1;exitX=0;exitY=0.5;exitDx=0;exitDy=0;entryX=1;entryY=0.5;entryDx=0;entryDy=0;" edge="1" parent="1" source="GEBA51vf_ek_FZlfBsd9-62" target="GEBA51vf_ek_FZlfBsd9-59">
          <mxGeometry relative="1" as="geometry" />
        </mxCell>
        <mxCell id="GEBA51vf_ek_FZlfBsd9-67" style="edgeStyle=orthogonalEdgeStyle;rounded=0;orthogonalLoop=1;jettySize=auto;html=1;entryX=0;entryY=0.5;entryDx=0;entryDy=0;" edge="1" parent="1" source="GEBA51vf_ek_FZlfBsd9-66" target="GEBA51vf_ek_FZlfBsd9-68">
          <mxGeometry relative="1" as="geometry">
            <mxPoint x="700" y="630" as="targetPoint" />
          </mxGeometry>
        </mxCell>
        <mxCell id="GEBA51vf_ek_FZlfBsd9-76" style="edgeStyle=orthogonalEdgeStyle;rounded=0;orthogonalLoop=1;jettySize=auto;html=1;exitX=0;exitY=0.5;exitDx=0;exitDy=0;" edge="1" parent="1" source="GEBA51vf_ek_FZlfBsd9-71">
          <mxGeometry relative="1" as="geometry">
            <mxPoint x="360" y="490" as="targetPoint" />
          </mxGeometry>
        </mxCell>
        <mxCell id="GEBA51vf_ek_FZlfBsd9-77" value="CPOS" style="swimlane;whiteSpace=wrap" vertex="1" parent="1">
          <mxGeometry x="250" y="719" width="390" height="570" as="geometry" />
        </mxCell>
        <mxCell id="GEBA51vf_ek_FZlfBsd9-79" value="商品中心" style="rounded=0;whiteSpace=wrap;html=1;" vertex="1" parent="GEBA51vf_ek_FZlfBsd9-77">
          <mxGeometry x="110" y="55" width="80" height="52" as="geometry" />
        </mxCell>
        <mxCell id="GEBA51vf_ek_FZlfBsd9-87" value="会员" style="swimlane;whiteSpace=wrap" vertex="1" parent="1">
          <mxGeometry x="640" y="720" width="460" height="568" as="geometry" />
        </mxCell>
        <mxCell id="GEBA51vf_ek_FZlfBsd9-93" value="Actor" style="shape=umlActor;verticalLabelPosition=bottom;verticalAlign=top;html=1;" vertex="1" parent="1">
          <mxGeometry x="150" y="766" width="30" height="60" as="geometry" />
        </mxCell>
        <mxCell id="GEBA51vf_ek_FZlfBsd9-94" value="下单" style="html=1;verticalAlign=bottom;endArrow=block;rounded=0;entryX=0;entryY=0.5;entryDx=0;entryDy=0;" edge="1" parent="1" target="GEBA51vf_ek_FZlfBsd9-79">
          <mxGeometry width="80" relative="1" as="geometry">
            <mxPoint x="190" y="800" as="sourcePoint" />
            <mxPoint x="270" y="800" as="targetPoint" />
          </mxGeometry>
        </mxCell>
      </root>
    </mxGraphModel>
  </diagram>
</mxfile>
